<svg width="25" height="19" viewBox="0 0 25 19" fill="none" xmlns="http://www.w3.org/2000/svg">
<path d="M13.25 0.130011C13.6291 0.128943 13.9945 0.271444 14.2728 0.528856C14.5511 0.786267 14.7216 1.1395 14.75 1.51751V8.20001L14.93 8.38001H18.5V6.13001H16.25C16.1388 6.13003 16.0289 6.10532 15.9284 6.05765C15.8279 6.00998 15.7393 5.94056 15.6689 5.85441C15.5986 5.76826 15.5483 5.66754 15.5217 5.55955C15.495 5.45156 15.4928 5.33899 15.515 5.23001L15.5375 5.14001L17.0375 0.640011C17.0833 0.506039 17.166 0.387754 17.2762 0.298831C17.3863 0.209908 17.5194 0.153979 17.66 0.137511L17.75 0.130011H20.75C20.8922 0.131082 21.0311 0.172544 21.1506 0.249561C21.2701 0.326579 21.3653 0.43598 21.425 0.565011L21.4625 0.640011L22.9625 5.14001C22.9978 5.24564 23.0092 5.35781 22.9957 5.46837C22.9823 5.57893 22.9443 5.68511 22.8847 5.77919C22.8251 5.87327 22.7453 5.9529 22.6511 6.01228C22.5569 6.07167 22.4506 6.10932 22.34 6.12251L22.25 6.13001H20V8.38001H23.75C23.9343 8.37868 24.1126 8.44523 24.2509 8.56696C24.3892 8.68869 24.4779 8.85708 24.5 9.04001V18.13H23V15.88H15.5V18.13H14V15.88H2V18.13H0.500002V9.88001C0.499587 9.56295 0.566188 9.24937 0.69544 8.95985C0.824692 8.67032 1.01368 8.41139 1.25 8.20001V1.63001C1.24893 1.25093 1.39144 0.885507 1.64885 0.607224C1.90626 0.328941 2.25949 0.15844 2.6375 0.130011H2.75H13.25ZM23 9.88001H15.5V14.38H23V9.88001ZM13.25 9.13001H2.75C2.56574 9.12868 2.38744 9.19523 2.24911 9.31696C2.11078 9.43869 2.02211 9.60708 2 9.79001V14.38H14V9.88001C13.9995 9.7115 13.9422 9.54808 13.8374 9.4161C13.7327 9.28412 13.5865 9.19127 13.4225 9.15251L13.34 9.13751L13.25 9.13001ZM19.25 11.38C19.4489 11.38 19.6397 11.459 19.7803 11.5997C19.921 11.7403 20 11.9311 20 12.13C20 12.3289 19.921 12.5197 19.7803 12.6603C19.6397 12.801 19.4489 12.88 19.25 12.88C19.0511 12.88 18.8603 12.801 18.7197 12.6603C18.579 12.5197 18.5 12.3289 18.5 12.13C18.5 11.9311 18.579 11.7403 18.7197 11.5997C18.8603 11.459 19.0511 11.38 19.25 11.38ZM13.25 1.63001H2.75V7.63001H4.25V5.38001C4.24893 5.00093 4.39143 4.63551 4.64885 4.35722C4.90626 4.07894 5.25949 3.90844 5.6375 3.88001H10.25C10.6291 3.87894 10.9945 4.02144 11.2728 4.27886C11.5511 4.53627 11.7216 4.8895 11.75 5.26751V7.63001H13.25V1.63001ZM10.25 5.38001H5.75V7.63001H10.25V5.38001ZM20.21 1.63001H18.29L17.2925 4.63001H21.2075L20.21 1.63001Z" fill="#222222"/>
</svg>
