<svg width="13" height="13" viewBox="0 0 13 13" fill="none" xmlns="http://www.w3.org/2000/svg">
<path fill-rule="evenodd" clip-rule="evenodd" d="M6.01255 1.19752L4.4638 4.52752L0.7663 5.00377C0.694767 5.01271 0.627326 5.04208 0.572055 5.08836C0.516783 5.13464 0.476023 5.19587 0.454656 5.26472C0.433289 5.33357 0.43222 5.40712 0.451577 5.47657C0.470934 5.54601 0.509897 5.6084 0.5638 5.65627L3.3013 8.12002L2.56255 11.8138C2.54863 11.8844 2.55534 11.9575 2.58186 12.0244C2.60838 12.0914 2.6536 12.1492 2.71212 12.1911C2.77064 12.233 2.83999 12.2572 2.91188 12.2608C2.98377 12.2644 3.05517 12.2472 3.11755 12.2113L6.35005 10.3363L9.5863 12.2113C9.64868 12.2472 9.72008 12.2644 9.79197 12.2608C9.86386 12.2572 9.93321 12.233 9.99173 12.1911C10.0502 12.1492 10.0955 12.0914 10.122 12.0244C10.1485 11.9575 10.1552 11.8844 10.1413 11.8138L9.40255 8.12002L12.1401 5.65627C12.1929 5.60795 12.2308 5.54552 12.2492 5.47636C12.2677 5.40719 12.266 5.33419 12.2443 5.26596C12.2226 5.19774 12.1819 5.13715 12.1268 5.09135C12.0718 5.04556 12.0048 5.01647 11.9338 5.00752L8.2363 4.52752L6.6913 1.19752C6.66147 1.13205 6.61344 1.07654 6.55293 1.03762C6.49242 0.998693 6.422 0.977997 6.35005 0.977997C6.2781 0.977997 6.20768 0.998693 6.14717 1.03762C6.08666 1.07654 6.03863 1.13205 6.0088 1.19752H6.01255Z" fill="#222222"/>
</svg>
