<svg xmlns="http://www.w3.org/2000/svg" width="20" height="23" fill="none" viewBox="0 0 20 23"><path fill="#222" d="M3.04999 0.190006C2.47592 0.188972 1.92317 0.407405 1.50489 0.80059C1.08661 1.19378 0.834431 1.73197 0.799988 2.30501V22.69H2.29999V2.44001C2.29866 2.25575 2.3652 2.07745 2.48693 1.93912C2.60866 1.80079 2.77706 1.71211 2.95999 1.69001H11.3C11.4842 1.68868 11.6625 1.75522 11.8009 1.87695C11.9392 1.99868 12.0279 2.16707 12.05 2.35001V3.19001H8.29999C8.11573 3.18868 7.93743 3.25522 7.7991 3.37695C7.66077 3.49868 7.57209 3.66707 7.54999 3.85001V6.19001H5.29999V7.69001H19.55V6.19001H18.05V3.94001C18.0513 3.75575 17.9848 3.57745 17.863 3.43912C17.7413 3.30079 17.5729 3.21211 17.39 3.19001H13.55V2.44001C13.551 1.86594 13.3326 1.31319 12.9394 0.894905C12.5462 0.476623 12.008 0.224449 11.435 0.190006H3.04999ZM12.8 21.19C12.6011 21.19 12.4103 21.269 12.2697 21.4097C12.129 21.5503 12.05 21.7411 12.05 21.94C12.05 22.1389 12.129 22.3297 12.2697 22.4703C12.4103 22.611 12.6011 22.69 12.8 22.69C12.9989 22.69 13.1897 22.611 13.3303 22.4703C13.471 22.3297 13.55 22.1389 13.55 21.94C13.55 21.7411 13.471 21.5503 13.3303 21.4097C13.1897 21.269 12.9989 21.19 12.8 21.19ZM16.55 21.19C16.3511 21.19 16.1603 21.269 16.0197 21.4097C15.879 21.5503 15.8 21.7411 15.8 21.94C15.8 22.1389 15.879 22.3297 16.0197 22.4703C16.1603 22.611 16.3511 22.69 16.55 22.69C16.7489 22.69 16.9397 22.611 17.0803 22.4703C17.221 22.3297 17.3 22.1389 17.3 21.94C17.3 21.7411 17.221 21.5503 17.0803 21.4097C16.9397 21.269 16.7489 21.19 16.55 21.19ZM9.04999 21.19C8.85108 21.19 8.66031 21.269 8.51966 21.4097C8.37901 21.5503 8.29999 21.7411 8.29999 21.94C8.29999 22.1389 8.37901 22.3297 8.51966 22.4703C8.66031 22.611 8.85108 22.69 9.04999 22.69C9.2489 22.69 9.43967 22.611 9.58032 22.4703C9.72097 22.3297 9.79999 22.1389 9.79999 21.94C9.79999 21.7411 9.72097 21.5503 9.58032 21.4097C9.43967 21.269 9.2489 21.19 9.04999 21.19ZM12.8 18.19C12.6011 18.19 12.4103 18.269 12.2697 18.4097C12.129 18.5503 12.05 18.7411 12.05 18.94C12.05 19.1389 12.129 19.3297 12.2697 19.4703C12.4103 19.611 12.6011 19.69 12.8 19.69C12.9989 19.69 13.1897 19.611 13.3303 19.4703C13.471 19.3297 13.55 19.1389 13.55 18.94C13.55 18.7411 13.471 18.5503 13.3303 18.4097C13.1897 18.269 12.9989 18.19 12.8 18.19ZM16.55 18.19C16.3511 18.19 16.1603 18.269 16.0197 18.4097C15.879 18.5503 15.8 18.7411 15.8 18.94C15.8 19.1389 15.879 19.3297 16.0197 19.4703C16.1603 19.611 16.3511 19.69 16.55 19.69C16.7489 19.69 16.9397 19.611 17.0803 19.4703C17.221 19.3297 17.3 19.1389 17.3 18.94C17.3 18.7411 17.221 18.5503 17.0803 18.4097C16.9397 18.269 16.7489 18.19 16.55 18.19ZM9.04999 18.19C8.85108 18.19 8.66031 18.269 8.51966 18.4097C8.37901 18.5503 8.29999 18.7411 8.29999 18.94C8.29999 19.1389 8.37901 19.3297 8.51966 19.4703C8.66031 19.611 8.85108 19.69 9.04999 19.69C9.2489 19.69 9.43967 19.611 9.58032 19.4703C9.72097 19.3297 9.79999 19.1389 9.79999 18.94C9.79999 18.7411 9.72097 18.5503 9.58032 18.4097C9.43967 18.269 9.2489 18.19 9.04999 18.19ZM12.8 15.19C12.6011 15.19 12.4103 15.269 12.2697 15.4097C12.129 15.5503 12.05 15.7411 12.05 15.94C12.05 16.1389 12.129 16.3297 12.2697 16.4703C12.4103 16.611 12.6011 16.69 12.8 16.69C12.9989 16.69 13.1897 16.611 13.3303 16.4703C13.471 16.3297 13.55 16.1389 13.55 15.94C13.55 15.7411 13.471 15.5503 13.3303 15.4097C13.1897 15.269 12.9989 15.19 12.8 15.19ZM16.55 15.19C16.3511 15.19 16.1603 15.269 16.0197 15.4097C15.879 15.5503 15.8 15.7411 15.8 15.94C15.8 16.1389 15.879 16.3297 16.0197 16.4703C16.1603 16.611 16.3511 16.69 16.55 16.69C16.7489 16.69 16.9397 16.611 17.0803 16.4703C17.221 16.3297 17.3 16.1389 17.3 15.94C17.3 15.7411 17.221 15.5503 17.0803 15.4097C16.9397 15.269 16.7489 15.19 16.55 15.19ZM9.04999 15.19C8.85108 15.19 8.66031 15.269 8.51966 15.4097C8.37901 15.5503 8.29999 15.7411 8.29999 15.94C8.29999 16.1389 8.37901 16.3297 8.51966 16.4703C8.66031 16.611 8.85108 16.69 9.04999 16.69C9.2489 16.69 9.43967 16.611 9.58032 16.4703C9.72097 16.3297 9.79999 16.1389 9.79999 15.94C9.79999 15.7411 9.72097 15.5503 9.58032 15.4097C9.43967 15.269 9.2489 15.19 9.04999 15.19ZM12.8 12.19C12.6011 12.19 12.4103 12.269 12.2697 12.4097C12.129 12.5503 12.05 12.7411 12.05 12.94C12.05 13.1389 12.129 13.3297 12.2697 13.4703C12.4103 13.611 12.6011 13.69 12.8 13.69C12.9989 13.69 13.1897 13.611 13.3303 13.4703C13.471 13.3297 13.55 13.1389 13.55 12.94C13.55 12.7411 13.471 12.5503 13.3303 12.4097C13.1897 12.269 12.9989 12.19 12.8 12.19ZM16.55 12.19C16.3511 12.19 16.1603 12.269 16.0197 12.4097C15.879 12.5503 15.8 12.7411 15.8 12.94C15.8 13.1389 15.879 13.3297 16.0197 13.4703C16.1603 13.611 16.3511 13.69 16.55 13.69C16.7489 13.69 16.9397 13.611 17.0803 13.4703C17.221 13.3297 17.3 13.1389 17.3 12.94C17.3 12.7411 17.221 12.5503 17.0803 12.4097C16.9397 12.269 16.7489 12.19 16.55 12.19ZM9.04999 12.19C8.85108 12.19 8.66031 12.269 8.51966 12.4097C8.37901 12.5503 8.29999 12.7411 8.29999 12.94C8.29999 13.1389 8.37901 13.3297 8.51966 13.4703C8.66031 13.611 8.85108 13.69 9.04999 13.69C9.2489 13.69 9.43967 13.611 9.58032 13.4703C9.72097 13.3297 9.79999 13.1389 9.79999 12.94C9.79999 12.7411 9.72097 12.5503 9.58032 12.4097C9.43967 12.269 9.2489 12.19 9.04999 12.19ZM12.8 9.19001C12.6011 9.19001 12.4103 9.26902 12.2697 9.40968C12.129 9.55033 12.05 9.74109 12.05 9.94001C12.05 10.1389 12.129 10.3297 12.2697 10.4703C12.4103 10.611 12.6011 10.69 12.8 10.69C12.9989 10.69 13.1897 10.611 13.3303 10.4703C13.471 10.3297 13.55 10.1389 13.55 9.94001C13.55 9.74109 13.471 9.55033 13.3303 9.40968C13.1897 9.26902 12.9989 9.19001 12.8 9.19001ZM9.04999 9.19001C8.85108 9.19001 8.66031 9.26902 8.51966 9.40968C8.37901 9.55033 8.29999 9.74109 8.29999 9.94001C8.29999 10.1389 8.37901 10.3297 8.51966 10.4703C8.66031 10.611 8.85108 10.69 9.04999 10.69C9.2489 10.69 9.43967 10.611 9.58032 10.4703C9.72097 10.3297 9.79999 10.1389 9.79999 9.94001C9.79999 9.74109 9.72097 9.55033 9.58032 9.40968C9.43967 9.26902 9.2489 9.19001 9.04999 9.19001ZM16.55 9.19001C16.3511 9.19001 16.1603 9.26902 16.0197 9.40968C15.879 9.55033 15.8 9.74109 15.8 9.94001C15.8 10.1389 15.879 10.3297 16.0197 10.4703C16.1603 10.611 16.3511 10.69 16.55 10.69C16.7489 10.69 16.9397 10.611 17.0803 10.4703C17.221 10.3297 17.3 10.1389 17.3 9.94001C17.3 9.74109 17.221 9.55033 17.0803 9.40968C16.9397 9.26902 16.7489 9.19001 16.55 9.19001ZM9.04999 4.69001H16.55V6.19001H9.04999V4.69001Z"/></svg>