<svg xmlns="http://www.w3.org/2000/svg" width="18" height="23" fill="none" viewBox="0 0 18 23"><path fill="#222" d="M15.92 0.159918C16.2991 0.158851 16.6645 0.301351 16.9428 0.558763C17.2211 0.816175 17.3916 1.1694 17.42 1.54742V21.1599C17.4211 21.539 17.2786 21.9044 17.0212 22.1827C16.7638 22.461 16.4105 22.6315 16.0325 22.6599H2.42002C2.04094 22.661 1.67552 22.5185 1.39723 22.2611C1.11895 22.0037 0.948449 21.6504 0.920019 21.2724V1.65992C0.918952 1.28084 1.06145 0.915414 1.31886 0.637131C1.57628 0.358848 1.92951 0.188348 2.30752 0.159918H2.42002H15.92ZM15.92 7.65992H2.42002V21.1599H15.92V7.65992ZM4.67002 9.15992C4.86893 9.15992 5.0597 9.23894 5.20035 9.37959C5.341 9.52024 5.42002 9.71101 5.42002 9.90992C5.42002 10.1088 5.341 10.2996 5.20035 10.4402C5.0597 10.5809 4.86893 10.6599 4.67002 10.6599C4.47111 10.6599 4.28034 10.5809 4.13969 10.4402C3.99904 10.2996 3.92002 10.1088 3.92002 9.90992C3.92002 9.71101 3.99904 9.52024 4.13969 9.37959C4.28034 9.23894 4.47111 9.15992 4.67002 9.15992ZM15.92 1.65992H2.42002V6.15992H15.92V1.65992ZM4.67002 3.15992C4.86893 3.15992 5.0597 3.23894 5.20035 3.37959C5.341 3.52024 5.42002 3.71101 5.42002 3.90992C5.42002 4.10883 5.341 4.2996 5.20035 4.44025C5.0597 4.5809 4.86893 4.65992 4.67002 4.65992C4.47111 4.65992 4.28034 4.5809 4.13969 4.44025C3.99904 4.2996 3.92002 4.10883 3.92002 3.90992C3.92002 3.71101 3.99904 3.52024 4.13969 3.37959C4.28034 3.23894 4.47111 3.15992 4.67002 3.15992Z"/></svg>