<svg xmlns="http://www.w3.org/2000/svg" width="23" height="24" fill="none" viewBox="0 0 23 24"><path fill="#222" d="M8.25251 0.630005V1.8825H14.7475V0.630005H16.2475V1.8825H20.7475C21.1266 1.88144 21.492 2.02394 21.7703 2.28135C22.0486 2.53876 22.2191 2.89199 22.2475 3.27V15.3225C22.2482 15.673 22.1261 16.0126 21.9025 16.2825L21.8125 16.38L15.25 22.9425C15.0008 23.1924 14.6715 23.3464 14.32 23.3775H4.50251C3.53589 23.3784 2.60624 23.0061 1.90753 22.3381C1.20883 21.6702 0.795039 20.7582 0.752508 19.7925V3.3825C0.751441 3.00343 0.893942 2.638 1.15135 2.35972C1.40876 2.08143 1.762 1.91093 2.14001 1.8825H6.75251V0.630005H8.25251ZM20.7475 9.38251H2.25251V19.6275C2.25147 20.2016 2.46991 20.7543 2.86309 21.1726C3.25628 21.5909 3.79447 21.8431 4.36751 21.8775H12.7525V17.6325C12.7516 16.6659 13.1239 15.7362 13.7919 15.0375C14.4599 14.3388 15.3718 13.925 16.3375 13.8825H20.7475V9.38251ZM20.6875 15.3825H16.5025C15.9284 15.3815 15.3757 15.5999 14.9574 15.9931C14.5391 16.3863 14.287 16.9245 14.2525 17.4975V21.8175L20.6875 15.3825ZM6.75251 3.3825H2.25251V7.8825H20.7475V3.3825H16.2475V4.6275H14.7475V3.3825H8.25251V4.6275H6.75251V3.3825Z"/></svg>