<svg width="23" height="21" viewBox="0 0 23 21" fill="none" xmlns="http://www.w3.org/2000/svg">
<path d="M21.25 0.659918C21.6291 0.658851 21.9945 0.801351 22.2728 1.05876C22.5511 1.31617 22.7216 1.6694 22.75 2.04742V18.6599C22.7511 19.039 22.6086 19.4044 22.3512 19.6827C22.0937 19.961 21.7405 20.1315 21.3625 20.1599H1.75001C1.37093 20.161 1.0055 20.0185 0.727219 19.7611C0.448936 19.5037 0.278436 19.1504 0.250006 18.7724V2.15992C0.248938 1.78084 0.391439 1.41541 0.648851 1.13713C0.906263 0.858848 1.25949 0.688348 1.63751 0.659918H1.75001H21.25ZM21.25 2.15992H1.75001V18.6599H21.25V2.15992ZM16.75 3.65992V17.1599H3.25001V3.65992H16.75ZM15.25 5.15992H4.75001V15.6599H7.00001C6.5529 15.0695 6.2918 14.3593 6.25001 13.6199V11.1599H13.75V13.4099C13.7511 14.2215 13.4878 15.0113 13 15.6599H15.25V5.15992ZM12.25 12.6599H7.75001V13.4099C7.74992 13.9613 7.95227 14.4934 8.31865 14.9055C8.68503 15.3175 9.18993 15.5806 9.7375 15.6449L9.86501 15.6524L10 15.6599C10.5741 15.661 11.1268 15.4425 11.5451 15.0493C11.9634 14.6561 12.2156 14.118 12.25 13.5449V13.4099V12.6599ZM19 6.65992C19.1989 6.65992 19.3897 6.73894 19.5303 6.87959C19.671 7.02024 19.75 7.21101 19.75 7.40992C19.75 7.60883 19.671 7.7996 19.5303 7.94025C19.3897 8.0809 19.1989 8.15992 19 8.15992C18.8011 8.15992 18.6103 8.0809 18.4697 7.94025C18.329 7.7996 18.25 7.60883 18.25 7.40992C18.25 7.21101 18.329 7.02024 18.4697 6.87959C18.6103 6.73894 18.8011 6.65992 19 6.65992ZM19 3.65992C19.1989 3.65992 19.3897 3.73894 19.5303 3.87959C19.671 4.02024 19.75 4.21101 19.75 4.40992C19.75 4.60883 19.671 4.7996 19.5303 4.94025C19.3897 5.0809 19.1989 5.15992 19 5.15992C18.8011 5.15992 18.6103 5.0809 18.4697 4.94025C18.329 4.7996 18.25 4.60883 18.25 4.40992C18.25 4.21101 18.329 4.02024 18.4697 3.87959C18.6103 3.73894 18.8011 3.65992 19 3.65992Z" fill="#222222"/>
</svg>
