<svg width="7" height="13" viewBox="0 0 7 13" fill="none" xmlns="http://www.w3.org/2000/svg">
<path fill-rule="evenodd" clip-rule="evenodd" d="M6.63335 11.0051C6.69507 11.0672 6.74394 11.1409 6.77718 11.222C6.81041 11.303 6.82736 11.3898 6.82705 11.4774C6.82674 11.565 6.80918 11.6517 6.77537 11.7325C6.74157 11.8133 6.69217 11.8867 6.63001 11.9484C6.56785 12.0101 6.49415 12.059 6.4131 12.0922C6.33205 12.1255 6.24525 12.1424 6.15766 12.1421C6.07006 12.1418 5.98338 12.1242 5.90257 12.0904C5.82176 12.0566 5.7484 12.0072 5.68668 11.9451L0.353347 6.61173C0.22918 6.48682 0.159485 6.31786 0.159485 6.14173C0.159485 5.96561 0.22918 5.79664 0.353347 5.67173L5.68668 0.338399C5.7484 0.27624 5.82176 0.226847 5.90257 0.193039C5.98338 0.159231 6.07006 0.141671 6.15766 0.141362C6.24525 0.141052 6.33205 0.157999 6.4131 0.191235C6.49415 0.224471 6.56785 0.273344 6.63001 0.335066C6.69217 0.396787 6.74157 0.470147 6.77537 0.550957C6.80918 0.631767 6.82674 0.718445 6.82705 0.806042C6.82736 0.893639 6.81041 0.980438 6.77718 1.06149C6.74394 1.14253 6.69507 1.21624 6.63335 1.2784L1.77335 6.1384L6.63335 11.0051Z" fill="#DDDDDD"/>
</svg>
