<svg xmlns="http://www.w3.org/2000/svg" width="16" height="15" fill="none" viewBox="0 0 16 15"><path stroke="#222" d="M7.50495 13.5C11.0049 11.135 14.5049 8.5 14.5049 5C14.5063 4.54 14.4166 4.08428 14.2412 3.65905C14.0658 3.23381 13.808 2.84745 13.4828 2.52218C13.1575 2.19691 12.7711 1.93916 12.3459 1.76373C11.9207 1.58831 11.4649 1.49868 11.0049 1.5C10.1049 1.5 9.21495 1.84 8.52995 2.525L7.50495 3.55L6.47995 2.525C6.15561 2.19876 5.76997 1.93986 5.34522 1.7632C4.92047 1.58653 4.46498 1.49558 4.00495 1.49558C3.54492 1.49558 3.08943 1.58653 2.66467 1.7632C2.23992 1.93986 1.85428 2.19876 1.52995 2.525C1.20451 2.8497 0.946423 3.2355 0.770522 3.66024C0.594621 4.08497 0.504368 4.54028 0.504947 5C0.504947 8.5 4.00495 11.135 7.50495 13.5Z"/></svg>