<svg xmlns="http://www.w3.org/2000/svg" width="24" height="23" fill="none" viewBox="0 0 24 23"><path fill="#222" d="M23.675 11.415L21.65 9.375L13.49 1.215C13.0617 0.806038 12.4922 0.57785 11.9 0.57785C11.3078 0.57785 10.7383 0.806038 10.31 1.215L2.15 9.3825L0.125 11.4075L1.175 12.4725L2.15 11.49V20.94C2.15 21.3378 2.30804 21.7194 2.58934 22.0007C2.87064 22.282 3.25218 22.44 3.65 22.44H20.15C20.5478 22.44 20.9294 22.282 21.2107 22.0007C21.492 21.7194 21.65 21.3378 21.65 20.94V11.4975L22.625 12.4725L23.675 11.415ZM6.7175 20.94C6.87989 19.8214 7.39899 18.785 8.19759 17.9851C8.99619 17.1851 10.0317 16.6643 11.15 16.5V14.775C10.7552 14.6027 10.4318 14.2997 10.2341 13.917C10.0364 13.5342 9.97654 13.0951 10.0646 12.6734C10.1526 12.2518 10.3831 11.8733 10.7173 11.6016C11.0516 11.3299 11.4692 11.1815 11.9 11.1815C12.3308 11.1815 12.7484 11.3299 13.0827 11.6016C13.4169 11.8733 13.6474 12.2518 13.7354 12.6734C13.8235 13.0951 13.7636 13.5342 13.5659 13.917C13.3682 14.2997 13.0448 14.6027 12.65 14.775V16.5C13.7697 16.6628 14.8069 17.183 15.6069 17.9831C16.407 18.7831 16.9272 19.8203 17.09 20.94H6.7175ZM20.15 20.94H18.59C18.4546 19.7151 17.9869 18.5505 17.2373 17.5723C16.4878 16.594 15.485 15.8394 14.3375 15.39C14.7949 14.9124 15.1019 14.3109 15.2204 13.6603C15.3389 13.0097 15.2636 12.3387 15.004 11.7305C14.7443 11.1223 14.3117 10.6038 13.7599 10.2393C13.208 9.87492 12.5613 9.68064 11.9 9.68064C11.2387 9.68064 10.592 9.87492 10.0401 10.2393C9.48831 10.6038 9.0557 11.1223 8.79604 11.7305C8.53639 12.3387 8.46113 13.0097 8.57961 13.6603C8.6981 14.3109 9.0051 14.9124 9.4625 15.39C8.31498 15.8394 7.31219 16.594 6.56265 17.5723C5.81311 18.5505 5.34536 19.7151 5.21 20.94H3.65V9.9975L11.375 2.28C11.5152 2.14258 11.7037 2.0656 11.9 2.0656C12.0963 2.0656 12.2848 2.14258 12.425 2.28L20.15 10.005V20.94Z"/></svg>