<svg xmlns="http://www.w3.org/2000/svg" width="7" height="13" fill="none" viewBox="0 0 7 13"><path fill="#222" fill-rule="evenodd" d="M0.359999 1.28133C0.298277 1.21917 0.249403 1.14546 0.216168 1.06442C0.182932 0.983368 0.165985 0.896568 0.166295 0.808972C0.166604 0.721375 0.184164 0.634697 0.217972 0.553887C0.251779 0.473077 0.301173 0.399717 0.363332 0.337995C0.425491 0.276274 0.499198 0.2274 0.580246 0.194164C0.661293 0.160929 0.748092 0.143982 0.835689 0.144291C0.923286 0.144601 1.00996 0.162161 1.09077 0.195968C1.17158 0.229776 1.24494 0.27917 1.30667 0.341329L6.64 5.67466C6.76417 5.79957 6.83386 5.96854 6.83386 6.14466C6.83386 6.32079 6.76417 6.48975 6.64 6.61466L1.30667 11.948C1.24494 12.0102 1.17158 12.0595 1.09077 12.0934C1.00996 12.1272 0.923286 12.1447 0.835689 12.145C0.748092 12.1453 0.661293 12.1284 0.580246 12.0952C0.499198 12.0619 0.425491 12.0131 0.363332 11.9513C0.301173 11.8896 0.251779 11.8162 0.217972 11.7354C0.184164 11.6546 0.166604 11.5679 0.166294 11.4804C0.165985 11.3928 0.182932 11.306 0.216168 11.2249C0.249403 11.1439 0.298277 11.0702 0.359999 11.008L5.22 6.148L0.359999 1.28133Z" clip-rule="evenodd"/></svg>