<svg xmlns="http://www.w3.org/2000/svg" width="21" height="23" fill="none" viewBox="0 0 21 23"><path fill="#222" d="M16.7475 0.882513C17.1266 0.881446 17.492 1.02395 17.7703 1.28136C18.0486 1.53877 18.2191 1.892 18.2475 2.27001V20.8775H20.4975V22.3775H0.502502V20.8775H2.7525V2.38251C2.75143 2.00343 2.89394 1.63801 3.15135 1.35973C3.40876 1.08144 3.76199 0.910943 4.14 0.882513H4.2525H16.7475ZM13.7475 2.38251H4.2525V20.8775H13.7475V2.38251ZM16.7475 2.38251H15.2475V20.8775H16.7475V2.38251ZM11.4975 10.6325C11.6285 10.6325 11.7582 10.6583 11.8792 10.7084C12.0002 10.7586 12.1102 10.832 12.2028 10.9247C12.2955 11.0173 12.3689 11.1273 12.4191 11.2483C12.4692 11.3693 12.495 11.499 12.495 11.63C12.495 11.761 12.4692 11.8907 12.4191 12.0117C12.3689 12.1328 12.2955 12.2427 12.2028 12.3354C12.1102 12.428 12.0002 12.5015 11.8792 12.5516C11.7582 12.6017 11.6285 12.6275 11.4975 12.6275C11.2329 12.6275 10.9792 12.5224 10.7922 12.3354C10.6051 12.1483 10.5 11.8946 10.5 11.63C10.5 11.3655 10.6051 11.1117 10.7922 10.9247C10.9792 10.7376 11.2329 10.6325 11.4975 10.6325Z"/></svg>