<svg width="14" height="14" viewBox="0 0 14 14" fill="none" xmlns="http://www.w3.org/2000/svg">
<path d="M6.33373 1.1525L4.53123 4.775L0.532479 5.34375C0.436701 5.35548 0.347489 5.39855 0.278729 5.46625L0.226229 5.55375C0.138729 5.72875 0.129979 5.79 0.199979 5.93875L0.287479 6.09625L3.17498 8.9225L2.47498 12.9037C2.45809 12.9994 2.47348 13.0979 2.51873 13.1837L2.57998 13.2537C2.71998 13.4025 2.77248 13.4287 2.93873 13.4025L3.11373 13.3675L6.70123 11.5037L10.2712 13.3937C10.3587 13.4462 10.455 13.455 10.56 13.4375L10.63 13.4025C10.8137 13.315 10.8575 13.2712 10.8925 13.105L10.91 12.93L10.2362 8.94875L13.1412 6.13125C13.2139 6.06147 13.2603 5.96875 13.2725 5.86875L13.2637 5.78125C13.22 5.51875 13.1937 5.51875 12.8962 5.37875L8.89748 4.78375L7.12123 1.1525C7.0854 1.07853 7.02947 1.01615 6.95983 0.9725C6.89019 0.928851 6.80967 0.905701 6.72748 0.905701C6.64529 0.905701 6.56477 0.928851 6.49513 0.9725C6.42549 1.01615 6.36955 1.07853 6.33373 1.1525Z" fill="#222222"/>
</svg>
