<svg xmlns="http://www.w3.org/2000/svg" width="5" height="8" fill="none" viewBox="0 0 5 8"><path fill="#484848" fill-rule="evenodd" d="M0.463308 1.30536C0.427304 1.2691 0.398794 1.22611 0.379406 1.17883C0.360019 1.13155 0.350133 1.08092 0.350314 1.02982C0.350494 0.978725 0.360738 0.928162 0.380459 0.881023C0.40018 0.833884 0.428993 0.79109 0.465252 0.755086C0.501512 0.719082 0.544508 0.690573 0.591785 0.671185C0.639063 0.651797 0.689696 0.641912 0.740794 0.642092C0.791892 0.642273 0.842454 0.652516 0.889593 0.672237C0.936733 0.691958 0.979526 0.720771 1.01553 0.757031L4.12664 3.86814C4.19907 3.94101 4.23973 4.03957 4.23973 4.14231C4.23973 4.24505 4.19907 4.34361 4.12664 4.41648L1.01553 7.52759C0.979526 7.56385 0.936733 7.59266 0.889593 7.61238C0.842454 7.6321 0.791892 7.64234 0.740794 7.64252C0.689696 7.6427 0.639063 7.63282 0.591785 7.61343C0.544508 7.59404 0.501512 7.56553 0.465252 7.52953C0.428993 7.49353 0.40018 7.45073 0.380459 7.40359C0.360738 7.35645 0.350494 7.30589 0.350314 7.25479C0.350133 7.2037 0.360019 7.15306 0.379406 7.10579C0.398794 7.05851 0.427304 7.01551 0.463308 6.97925L3.29831 4.14425L0.463308 1.30536Z" clip-rule="evenodd"/></svg>