<svg width="21" height="22" viewBox="0 0 21 22" fill="none" xmlns="http://www.w3.org/2000/svg">
<path d="M0.0375 4.13491L1.5 5.58241V18.1599C1.49897 18.734 1.7174 19.2867 2.11058 19.705C2.50377 20.1233 3.04197 20.3755 3.615 20.4099H16.32L17.7825 21.8724C17.6625 21.8874 17.535 21.9024 17.4075 21.9024L17.25 21.9099H3.75C2.78338 21.9109 1.85373 21.5385 1.15502 20.8705C0.456317 20.2026 0.042531 19.2906 0 18.3249V4.65991C0 4.47991 0.015 4.29991 0.0375 4.13491ZM1.2825 1.13491L20.7825 20.6349L19.7175 21.6849L0.2175 2.18491L1.2825 1.13491ZM17.25 0.909914C18.2166 0.908978 19.1463 1.28134 19.845 1.9493C20.5437 2.61726 20.9575 3.52923 21 4.49491V18.1599C20.9998 18.3356 20.9873 18.511 20.9625 18.6849L19.5 17.2374V4.65991C19.501 4.08585 19.2826 3.5331 18.8894 3.11481C18.4962 2.69653 17.958 2.44436 17.385 2.40991H4.68L3.225 0.947414C3.345 0.932414 3.4725 0.917414 3.6 0.917414L3.75 0.909914H17.25ZM6.825 12.1599C6.97198 12.8806 7.32763 13.5421 7.84771 14.0622C8.36779 14.5823 9.02933 14.9379 9.75 15.0849V16.6074C8.62785 16.4457 7.58819 15.9251 6.78651 15.1234C5.98483 14.3217 5.46421 13.2821 5.3025 12.1599H6.825ZM11.25 15.3399L12.2625 16.3599C11.9341 16.476 11.5949 16.559 11.25 16.6074V15.3399ZM14.43 12.1599H15.6975C15.645 12.5124 15.5625 12.8499 15.4425 13.1724L14.43 12.1599ZM11.25 6.21241C12.3722 6.37412 13.4118 6.89475 14.2135 7.69643C15.0152 8.49811 15.5358 9.53776 15.6975 10.6599H14.175C14.028 9.93925 13.6724 9.27771 13.1523 8.75763C12.6322 8.23755 11.9707 7.88189 11.25 7.73491V6.21241ZM5.55 9.64741L6.57 10.6599H5.3025C5.355 10.3074 5.4375 9.96991 5.55 9.64741ZM9.75 6.21241V7.47991L8.7375 6.45991C9.06588 6.34379 9.40508 6.26088 9.75 6.21241ZM15.75 5.40991C15.9489 5.40991 16.1397 5.48893 16.2803 5.62958C16.421 5.77024 16.5 5.961 16.5 6.15991C16.5 6.35883 16.421 6.54959 16.2803 6.69024C16.1397 6.8309 15.9489 6.90991 15.75 6.90991C15.5511 6.90991 15.3603 6.8309 15.2197 6.69024C15.079 6.54959 15 6.35883 15 6.15991C15 5.961 15.079 5.77024 15.2197 5.62958C15.3603 5.48893 15.5511 5.40991 15.75 5.40991Z" fill="#222222"/>
</svg>
