<svg xmlns="http://www.w3.org/2000/svg" width="5" height="8" fill="none" viewBox="0 0 5 8"><path fill="#484848" fill-rule="evenodd" d="M0.773305 1.30536C0.737301 1.2691 0.708792 1.22611 0.689404 1.17883C0.670016 1.13155 0.660131 1.08092 0.660311 1.02982C0.660492 0.978725 0.670735 0.928162 0.690456 0.881023C0.710177 0.833884 0.73899 0.79109 0.77525 0.755086C0.811509 0.719082 0.854505 0.690573 0.901783 0.671185C0.94906 0.651797 0.999693 0.641912 1.05079 0.642092C1.10189 0.642273 1.15245 0.652516 1.19959 0.672237C1.24673 0.691958 1.28952 0.720771 1.32553 0.757031L4.43664 3.86814C4.50907 3.94101 4.54972 4.03957 4.54972 4.14231C4.54972 4.24505 4.50907 4.34361 4.43664 4.41648L1.32553 7.52759C1.28952 7.56385 1.24673 7.59266 1.19959 7.61238C1.15245 7.6321 1.10189 7.64234 1.05079 7.64252C0.999693 7.6427 0.94906 7.63282 0.901783 7.61343C0.854505 7.59404 0.811509 7.56553 0.77525 7.52953C0.73899 7.49353 0.710177 7.45073 0.690456 7.40359C0.670735 7.35645 0.660492 7.30589 0.660311 7.25479C0.660131 7.2037 0.670016 7.15306 0.689404 7.10579C0.708792 7.05851 0.737301 7.01551 0.773305 6.97925L3.60831 4.14425L0.773305 1.30536Z" clip-rule="evenodd"/></svg>