<svg width="24" height="23" viewBox="0 0 24 23" fill="none" xmlns="http://www.w3.org/2000/svg">
<path d="M2.78751 5.20741L3.86751 6.28741C2.91702 7.82663 2.41566 9.60088 2.42001 11.4099C2.41967 13.1453 2.88248 14.8493 3.76068 16.346C4.63888 17.8427 5.90063 19.0779 7.41568 19.9241C8.93073 20.7703 10.6442 21.1968 12.3791 21.1596C14.1141 21.1224 15.8076 20.6228 17.285 19.7124L18.3725 20.7924C16.5341 22.0124 14.3763 22.6621 12.17 22.6599C10.1379 22.6593 8.14388 22.1083 6.39978 21.0655C4.65567 20.0226 3.2266 18.5268 2.26437 16.7369C1.30213 14.9471 0.842672 12.93 0.934783 10.9C1.02689 8.86995 1.66714 6.90278 2.78751 5.20741ZM2.95251 1.12741L22.4525 20.6274L21.3875 21.6924L1.88751 2.19241L2.95251 1.12741ZM12.17 0.159913C14.2028 0.159137 16.1977 0.709141 17.9429 1.75147C19.6881 2.79379 21.1183 4.28949 22.0814 6.07959C23.0445 7.86969 23.5046 9.8873 23.4128 11.918C23.321 13.9487 22.6807 15.9165 21.56 17.6124L20.4725 16.5249C21.4217 14.9879 21.923 13.2164 21.92 11.4099C21.92 8.82405 20.8928 6.3441 19.0643 4.51562C17.2358 2.68714 14.7559 1.65991 12.17 1.65991C10.361 1.65556 8.58673 2.15692 7.04751 3.10741L5.97501 2.03491C7.81042 0.813708 9.96546 0.161454 12.17 0.159913ZM8.49501 12.1599C8.64199 12.8806 8.99765 13.5421 9.51773 14.0622C10.0378 14.5823 10.6993 14.9379 11.42 15.0849V16.6074C10.2979 16.4457 9.2582 15.9251 8.45652 15.1234C7.65485 14.3217 7.13422 13.2821 6.97251 12.1599H8.49501ZM12.92 15.3399L13.9325 16.3599C13.6041 16.476 13.2649 16.559 12.92 16.6074V15.3399ZM16.1 12.1599H17.3675C17.315 12.5124 17.2325 12.8499 17.1125 13.1724L16.1 12.1599ZM12.92 6.21241C14.0422 6.37412 15.0818 6.89475 15.8835 7.69642C16.6852 8.4981 17.2058 9.53776 17.3675 10.6599H15.845C15.698 9.93924 15.3424 9.27771 14.8223 8.75763C14.3022 8.23755 13.6407 7.88189 12.92 7.73491V6.21241ZM7.22001 9.64741L8.24001 10.6599H6.97251C7.02501 10.3074 7.10751 9.96991 7.22001 9.64741ZM11.42 6.21241V7.47991L10.4075 6.45991C10.7359 6.34379 11.0751 6.26088 11.42 6.21241ZM17.42 5.40991C17.6189 5.40991 17.8097 5.48893 17.9503 5.62958C18.091 5.77024 18.17 5.961 18.17 6.15991C18.17 6.35883 18.091 6.54959 17.9503 6.69024C17.8097 6.83089 17.6189 6.90991 17.42 6.90991C17.2211 6.90991 17.0303 6.83089 16.8897 6.69024C16.749 6.54959 16.67 6.35883 16.67 6.15991C16.67 5.961 16.749 5.77024 16.8897 5.62958C17.0303 5.48893 17.2211 5.40991 17.42 5.40991Z" fill="#222222"/>
</svg>
