<svg width="14" height="15" viewBox="0 0 14 15" fill="none" xmlns="http://www.w3.org/2000/svg">
<path d="M12.59 2.07001H7.09003V1.07001C7.09003 0.804791 6.98467 0.550437 6.79713 0.3629C6.6096 0.175364 6.35524 0.0700073 6.09003 0.0700073H0.0900269V14.07H1.09003V8.07001H6.09003V9.07001C6.09003 9.33522 6.19538 9.58958 6.38292 9.77711C6.57046 9.96465 6.82481 10.07 7.09003 10.07H12.65C12.7225 10.0614 12.7921 10.0371 12.8542 9.99868C12.9162 9.9603 12.9691 9.90881 13.0091 9.84783C13.0491 9.78684 13.0753 9.71784 13.0858 9.64567C13.0964 9.57349 13.091 9.49988 13.07 9.43001L12.11 6.07001L13.07 2.71001C13.0918 2.63549 13.0958 2.55694 13.082 2.48056C13.0681 2.40419 13.0366 2.33211 12.99 2.27001C12.9435 2.20791 12.8831 2.15751 12.8136 2.12279C12.7442 2.08808 12.6676 2.07001 12.59 2.07001Z" fill="#717171"/>
</svg>
