<svg xmlns="http://www.w3.org/2000/svg" width="8" height="13" fill="none" viewBox="0 0 8 13"><path fill="#222" fill-rule="evenodd" d="M0.699995 1.81807C0.638274 1.75591 0.5894 1.68221 0.556164 1.60116C0.522928 1.52011 0.505981 1.43331 0.506291 1.34571C0.5066 1.25812 0.52416 1.17144 0.557968 1.09063C0.591776 1.00982 0.641169 0.93646 0.703328 0.874738C0.765487 0.813017 0.839195 0.764143 0.920242 0.730908C1.00129 0.697672 1.08809 0.680725 1.17569 0.681034C1.26328 0.681344 1.34996 0.698904 1.43077 0.732712C1.51158 0.766519 1.58494 0.815913 1.64666 0.878072L6.98 6.21141C7.10416 6.33631 7.17386 6.50528 7.17386 6.68141C7.17386 6.85753 7.10416 7.0265 6.98 7.15141L1.64666 12.4847C1.58494 12.5469 1.51158 12.5963 1.43077 12.6301C1.34996 12.6639 1.26328 12.6815 1.17569 12.6818C1.08809 12.6821 1.00129 12.6651 0.920242 12.6319C0.839195 12.5987 0.765487 12.5498 0.703328 12.4881C0.641169 12.4264 0.591776 12.353 0.557968 12.2722C0.52416 12.1914 0.5066 12.1047 0.506291 12.0171C0.505981 11.9295 0.522928 11.8427 0.556164 11.7617C0.5894 11.6806 0.638274 11.6069 0.699995 11.5447L5.56 6.68474L0.699995 1.81807Z" clip-rule="evenodd"/></svg>