<svg xmlns="http://www.w3.org/2000/svg" width="22" height="22" fill="none" viewBox="0 0 22 22"><path fill="#222" d="M18.8875 0.909912C19.4283 0.911797 19.9504 1.10841 20.3581 1.46376C20.7657 1.81911 21.0318 2.30942 21.1075 2.84491C21.4825 5.51491 21.67 8.37241 21.67 11.4099C21.67 14.4474 21.4825 17.3049 21.1075 19.9749C21.0341 20.4881 20.7858 20.9602 20.4046 21.3114C20.0233 21.6626 19.5325 21.8713 19.015 21.9024L18.8875 21.9099H3.44501C2.9042 21.908 2.38216 21.7114 1.97447 21.3561C1.56678 21.0007 1.30072 20.5104 1.22501 19.9749C0.857513 17.3049 0.670013 14.4474 0.670013 11.4099C0.670013 8.37241 0.857513 5.51491 1.23251 2.84491C1.30588 2.33176 1.55419 1.85967 1.93546 1.50847C2.31673 1.15726 2.80757 0.94848 3.32501 0.917412L3.44501 0.909912H18.8875ZM18.8875 2.40991H3.46001C3.27802 2.40812 3.10159 2.47257 2.9636 2.59124C2.82561 2.70991 2.73548 2.8747 2.71001 3.05491C2.33713 5.82409 2.1567 8.61578 2.17001 11.4099C2.17001 14.3799 2.35001 17.1624 2.71751 19.7649C2.74106 19.9281 2.81775 20.079 2.9357 20.1943C3.05365 20.3095 3.2063 20.3827 3.37001 20.4024L3.45251 20.4099H18.88C19.062 20.4117 19.2384 20.3473 19.3764 20.2286C19.5144 20.1099 19.6045 19.9451 19.63 19.7649C19.99 17.1624 20.17 14.3799 20.17 11.4099C20.17 8.43991 19.99 5.65741 19.6225 3.05491C19.5976 2.87852 19.5107 2.71675 19.3774 2.59856C19.2441 2.48038 19.0731 2.41351 18.895 2.40991H18.8875ZM11.17 4.65991C12.9602 4.65991 14.6771 5.37107 15.943 6.63694C17.2089 7.90281 17.92 9.6197 17.92 11.4099C17.92 13.2001 17.2089 14.917 15.943 16.1829C14.6771 17.4488 12.9602 18.1599 11.17 18.1599C9.3798 18.1599 7.66291 17.4488 6.39704 16.1829C5.13117 14.917 4.42001 13.2001 4.42001 11.4099C4.42001 9.6197 5.13117 7.90281 6.39704 6.63694C7.66291 5.37107 9.3798 4.65991 11.17 4.65991ZM6.79001 10.2849C6.53501 10.2849 6.28001 10.2999 6.02501 10.3374C5.76727 11.5834 5.97081 12.8806 6.59776 13.9878C7.22472 15.095 8.23243 15.9368 9.43352 16.3567C10.6346 16.7767 11.9473 16.7461 13.1276 16.2707C14.3078 15.7954 15.2753 14.9076 15.85 13.7724C14.9114 13.8496 13.967 13.7316 13.0764 13.4256C12.1857 13.1197 11.3681 12.6326 10.675 11.9949L10.5025 11.8224C10.0157 11.3339 9.43706 10.9466 8.79989 10.6827C8.16273 10.4188 7.47965 10.2836 6.79001 10.2849ZM11.17 6.15991C10.2475 6.15888 9.34091 6.40098 8.54169 6.86181C7.74247 7.32265 7.07879 7.98595 6.61751 8.78491H6.79001C8.48501 8.78491 10.12 9.41491 11.38 10.5849L11.56 10.7649C12.1774 11.3845 12.9401 11.8396 13.7786 12.0885C14.6171 12.3374 15.5046 12.3723 16.36 12.1899C16.4722 11.4431 16.422 10.6808 16.2127 9.95514C16.0034 9.22948 15.6401 8.55752 15.1474 7.98511C14.6547 7.4127 14.0443 6.95333 13.3579 6.63834C12.6715 6.32335 11.9252 6.16016 11.17 6.15991ZM4.42001 3.90991C4.61893 3.90991 4.80969 3.98893 4.95034 4.12958C5.091 4.27023 5.17001 4.461 5.17001 4.65991C5.17001 4.85882 5.091 5.04959 4.95034 5.19024C4.80969 5.33089 4.61893 5.40991 4.42001 5.40991C4.2211 5.40991 4.03034 5.33089 3.88968 5.19024C3.74903 5.04959 3.67001 4.85882 3.67001 4.65991C3.67001 4.461 3.74903 4.27023 3.88968 4.12958C4.03034 3.98893 4.2211 3.90991 4.42001 3.90991Z"/></svg>