<svg xmlns="http://www.w3.org/2000/svg" width="5" height="8" fill="none" viewBox="0 0 5 8"><path fill="#484848" fill-rule="evenodd" d="M0.943334 1.30536C0.90733 1.2691 0.87882 1.22611 0.859433 1.17883C0.840045 1.13155 0.830159 1.08092 0.83034 1.02982C0.830521 0.978725 0.840764 0.928162 0.860485 0.881023C0.880206 0.833884 0.909019 0.79109 0.945279 0.755086C0.981538 0.719082 1.02453 0.690573 1.07181 0.671185C1.11909 0.651797 1.16972 0.641912 1.22082 0.642092C1.27192 0.642273 1.32248 0.652516 1.36962 0.672237C1.41676 0.691958 1.45955 0.720771 1.49556 0.757031L4.60667 3.86814C4.6791 3.94101 4.71975 4.03957 4.71975 4.14231C4.71975 4.24505 4.6791 4.34361 4.60667 4.41648L1.49556 7.52759C1.45955 7.56385 1.41676 7.59266 1.36962 7.61238C1.32248 7.6321 1.27192 7.64234 1.22082 7.64252C1.16972 7.6427 1.11909 7.63282 1.07181 7.61343C1.02453 7.59404 0.981538 7.56553 0.945279 7.52953C0.909019 7.49353 0.880206 7.45073 0.860485 7.40359C0.840764 7.35645 0.830521 7.30589 0.83034 7.25479C0.830159 7.2037 0.840045 7.15306 0.859433 7.10579C0.87882 7.05851 0.90733 7.01551 0.943334 6.97925L3.77833 4.14425L0.943334 1.30536Z" clip-rule="evenodd"/></svg>