<svg xmlns="http://www.w3.org/2000/svg" width="23" height="23" fill="none" viewBox="0 0 23 23"><path fill="#222" d="M1.29252 0.467418L22.495 21.6849L21.445 22.7349L0.220016 1.53242L1.29252 0.467418ZM2.92002 6.44492L4.42002 7.95242V21.1599H17.5375L19.03 22.6599H1.42002V21.1599H2.92002V6.44492ZM17.92 0.159918C18.2991 0.158851 18.6645 0.301351 18.9428 0.558763C19.2211 0.816175 19.3916 1.1694 19.42 1.54742V16.6674L17.92 15.1599V1.65992H4.51002L3.40752 0.549918C3.65637 0.325461 3.97321 0.190802 4.30752 0.167418L4.42002 0.159918H17.92ZM7.77252 11.3274L8.95002 12.5199C8.88711 12.8753 8.9106 13.2405 9.0185 13.5849C9.1264 13.9293 9.31556 14.2426 9.57 14.4985C9.82444 14.7545 10.1367 14.9454 10.4804 15.0553C10.8242 15.1652 11.1893 15.1908 11.545 15.1299L12.6475 16.2399C12.1975 16.5024 11.695 16.6599 11.17 16.6599C10.5399 16.6595 9.92001 16.5004 9.36764 16.1971C8.81526 15.8939 8.34821 15.4564 8.00962 14.9249C7.67103 14.3935 7.47181 13.7853 7.43037 13.1565C7.38893 12.5278 7.5066 11.8987 7.77252 11.3274ZM11.17 6.15992C11.7441 6.15888 12.2968 6.37732 12.7151 6.7705C13.1334 7.16369 13.3856 7.70188 13.42 8.27492V9.17492C13.8807 9.5204 14.2557 9.96734 14.5158 10.4811C14.7759 10.9948 14.9142 11.5616 14.92 12.1374L11.92 9.12242V8.40992C11.921 8.26355 11.8792 8.12009 11.7996 7.99722C11.7201 7.87436 11.6063 7.77745 11.4724 7.71844C11.3384 7.65944 11.1901 7.64093 11.0458 7.66518C10.9014 7.68943 10.7673 7.75538 10.66 7.85492L9.61002 6.78992C10.0286 6.38542 10.588 6.15951 11.17 6.15992Z"/></svg>