<svg xmlns="http://www.w3.org/2000/svg" width="25" height="19" fill="none" viewBox="0 0 25 19"><path fill="#222" d="M12.5 12.6575C13.23 12.6575 13.9301 12.9475 14.4463 13.4637C14.9625 13.9799 15.2525 14.68 15.2525 15.41C15.2525 16.14 14.9625 16.8401 14.4463 17.3563C13.9301 17.8725 13.23 18.1625 12.5 18.1625C11.77 18.1625 11.0699 17.8725 10.5537 17.3563C10.0375 16.8401 9.74749 16.14 9.74749 15.41C9.74749 14.68 10.0375 13.9799 10.5537 13.4637C11.0699 12.9475 11.77 12.6575 12.5 12.6575ZM12.5 14.1575C12.1678 14.1575 11.8492 14.2894 11.6143 14.5243C11.3795 14.7592 11.2475 15.0778 11.2475 15.41C11.2475 15.7422 11.3795 16.0607 11.6143 16.2956C11.8492 16.5305 12.1678 16.6625 12.5 16.6625C12.8322 16.6625 13.1508 16.5305 13.3856 16.2956C13.6205 16.0607 13.7525 15.7422 13.7525 15.41C13.7525 15.0778 13.6205 14.7592 13.3856 14.5243C13.1508 14.2894 12.8322 14.1575 12.5 14.1575ZM12.5 8.65997C13.7511 8.66029 14.9775 9.00832 16.0423 9.66521C17.1071 10.3221 17.9684 11.262 18.53 12.38L17.3975 13.5125C17.0156 12.5237 16.3434 11.6736 15.4693 11.0741C14.5951 10.4746 13.56 10.1538 12.5 10.1538C11.44 10.1538 10.4049 10.4746 9.53072 11.0741C8.65656 11.6736 7.98434 12.5237 7.60249 13.5125L6.46999 12.38C7.0316 11.262 7.89288 10.3221 8.95767 9.66521C10.0225 9.00832 11.2489 8.66029 12.5 8.65997ZM12.5 4.66247C16.235 4.66247 19.5275 6.56747 21.455 9.46247L20.3675 10.5425C19.5389 9.2011 18.3811 8.09385 17.0041 7.32592C15.6271 6.55799 14.0766 6.15488 12.5 6.15488C10.9233 6.15488 9.37287 6.55799 7.99587 7.32592C6.61887 8.09385 5.46108 9.2011 4.63249 10.5425L3.54499 9.45497C4.52552 7.97794 5.85643 6.7666 7.41898 5.92905C8.98154 5.0915 10.7271 4.65379 12.5 4.65497V4.66247ZM12.5 0.657471C17.3375 0.657471 21.635 2.98247 24.32 6.58247L23.2475 7.66247C22.0225 5.95604 20.4088 4.56582 18.5399 3.60683C16.671 2.64784 14.6006 2.14766 12.5 2.14766C10.3994 2.14766 8.329 2.64784 6.46009 3.60683C4.59117 4.56582 2.97747 5.95604 1.75249 7.66247L0.679993 6.58997C3.36499 2.98997 7.65499 0.664971 12.5 0.664971V0.657471Z"/></svg>