<svg xmlns="http://www.w3.org/2000/svg" width="5" height="8" fill="none" viewBox="0 0 5 8"><path fill="#484848" fill-rule="evenodd" d="M0.273305 1.30536C0.237301 1.2691 0.208792 1.22611 0.189404 1.17883C0.170016 1.13155 0.160131 1.08092 0.160311 1.02982C0.160492 0.978725 0.170735 0.928162 0.190456 0.881023C0.210177 0.833884 0.23899 0.79109 0.27525 0.755086C0.311509 0.719082 0.354505 0.690573 0.401783 0.671185C0.44906 0.651797 0.499693 0.641912 0.550791 0.642092C0.601889 0.642273 0.652452 0.652516 0.699591 0.672237C0.74673 0.691958 0.789523 0.720771 0.825528 0.757031L3.93664 3.86814C4.00907 3.94101 4.04972 4.03957 4.04972 4.14231C4.04972 4.24505 4.00907 4.34361 3.93664 4.41648L0.825528 7.52759C0.789523 7.56385 0.74673 7.59266 0.699591 7.61238C0.652452 7.6321 0.601889 7.64234 0.550791 7.64252C0.499693 7.6427 0.44906 7.63282 0.401783 7.61343C0.354505 7.59404 0.311509 7.56553 0.27525 7.52953C0.23899 7.49353 0.210177 7.45073 0.190456 7.40359C0.170735 7.35645 0.160492 7.30589 0.160311 7.25479C0.160131 7.2037 0.170016 7.15306 0.189404 7.10579C0.208792 7.05851 0.237301 7.01551 0.273305 6.97925L3.10831 4.14425L0.273305 1.30536Z" clip-rule="evenodd"/></svg>