<svg xmlns="http://www.w3.org/2000/svg" width="17" height="16" fill="none" viewBox="0 0 17 16"><path fill="#222" fill-rule="evenodd" d="M8.05 1.08982L5.985 5.52982L1.055 6.16481C0.959619 6.17674 0.869699 6.21589 0.796004 6.2776C0.722309 6.33931 0.667962 6.42096 0.639472 6.51276C0.610983 6.60456 0.609557 6.70262 0.635367 6.79521C0.661176 6.8878 0.713127 6.97099 0.784997 7.03482L4.435 10.3198L3.45 15.2448C3.43144 15.339 3.44038 15.4365 3.47575 15.5257C3.51111 15.6149 3.5714 15.6921 3.64943 15.748C3.72745 15.8039 3.81991 15.8361 3.91577 15.8409C4.01162 15.8456 4.10682 15.8227 4.19 15.7748L8.5 13.2748L12.815 15.7748C12.8982 15.8227 12.9934 15.8456 13.0892 15.8409C13.1851 15.8361 13.2775 15.8039 13.3556 15.748C13.4336 15.6921 13.4939 15.6149 13.5292 15.5257C13.5646 15.4365 13.5736 15.339 13.555 15.2448L12.57 10.3198L16.22 7.03482C16.2904 6.97039 16.3409 6.88715 16.3656 6.79493C16.3902 6.70271 16.3879 6.60537 16.359 6.51441C16.3301 6.42344 16.2757 6.34266 16.2024 6.28159C16.129 6.22053 16.0397 6.18174 15.945 6.16982L11.015 5.52982L8.955 1.08982C8.91523 1.00252 8.85118 0.92851 8.7705 0.876612C8.68983 0.824714 8.59592 0.797119 8.5 0.797119C8.40407 0.797119 8.31017 0.824714 8.22949 0.876612C8.14881 0.92851 8.08477 1.00252 8.045 1.08982H8.05Z" clip-rule="evenodd"/></svg>