<svg xmlns="http://www.w3.org/2000/svg" width="30" height="29" fill="none" viewBox="0 0 30 29"><path fill="#717171" d="M15.315 0.15625C7.4025 0.15625 0.971252 6.5875 0.971252 14.5C0.971252 22.4125 7.4025 28.8437 15.315 28.8437C23.2275 28.8437 29.6588 22.4125 29.6588 14.5C29.6588 6.5875 23.2275 0.15625 15.315 0.15625ZM15.315 26.4062C11.5463 26.4062 8.19 24.6437 6.00563 21.8969C7.52587 19.9081 9.64614 18.4617 12.0525 17.7719C11.1851 17.222 10.4707 16.4619 9.97577 15.5621C9.48079 14.6623 9.22125 13.652 9.22125 12.625C9.22125 11.0088 9.86327 9.45887 11.0061 8.31607C12.1489 7.17327 13.6988 6.53125 15.315 6.53125C16.9312 6.53125 18.4811 7.17327 19.6239 8.31607C20.7667 9.45887 21.4088 11.0088 21.4088 12.625C21.4095 13.6534 21.1503 14.6653 20.6553 15.5667C20.1604 16.4682 19.4456 17.2299 18.5775 17.7812C20.9842 18.4705 23.1046 19.917 24.6244 21.9062C23.5122 23.3095 22.0971 24.4431 20.485 25.2224C18.8729 26.0016 17.1056 26.4063 15.315 26.4062Z"/></svg>