<svg width="16" height="17" viewBox="0 0 16 17" fill="none" xmlns="http://www.w3.org/2000/svg">
<path d="M8.125 0.75C10.184 0.755298 12.1567 1.57763 13.6098 3.03638C15.063 4.49512 15.8777 6.471 15.875 8.53C15.8681 10.541 15.0798 12.4706 13.6766 13.9111C12.2733 15.3516 10.3651 16.1903 8.355 16.25H8.105C6.09395 16.2458 4.16329 15.46 2.72088 14.0586C1.27847 12.6573 0.437273 10.7501 0.375 8.74V8.49C0.37765 6.43631 1.19534 4.46763 2.64845 3.01639C4.10157 1.56514 6.0713 0.749998 8.125 0.75ZM10.075 9.25H6.175C6.325 12.15 7.345 14.59 8.055 14.75H8.125C8.805 14.75 9.845 12.38 10.055 9.52L10.075 9.25ZM14.335 9.25H11.575C11.485 11.21 11.045 13.03 10.395 14.33C11.4089 13.9336 12.302 13.2795 12.9859 12.4325C13.6698 11.5855 14.1211 10.5747 14.295 9.5L14.335 9.25ZM4.665 9.25H1.925C2.06102 10.3739 2.49926 11.4398 3.19307 12.3344C3.88688 13.229 4.8103 13.9186 5.865 14.33C5.17794 12.8531 4.78399 11.257 4.705 9.63L4.675 9.25H4.665ZM5.865 2.67L5.745 2.72C4.71766 3.14311 3.82144 3.83201 3.14836 4.71598C2.47528 5.59995 2.04959 6.64713 1.915 7.75H4.665C4.755 5.92 5.145 4.21 5.725 2.94L5.865 2.67ZM8.115 2.25C7.415 2.25 6.335 4.76 6.175 7.75H10.075C9.925 4.85 8.895 2.41 8.185 2.25H8.115ZM10.395 2.68L10.425 2.73C11.1406 4.30947 11.5316 6.01655 11.575 7.75H14.325C14.1861 6.62971 13.7478 5.56757 13.0562 4.67536C12.3646 3.78315 11.4453 3.09385 10.395 2.68Z" fill="#222222"/>
</svg>
