<svg width="15" height="15" viewBox="0 0 15 15" fill="none" xmlns="http://www.w3.org/2000/svg">
<path fill-rule="evenodd" clip-rule="evenodd" d="M7.10122 1.19124L5.29434 5.07624L0.980595 5.63187C0.897139 5.6423 0.818459 5.67656 0.753976 5.73056C0.689492 5.78455 0.641939 5.85599 0.617011 5.93632C0.592082 6.01664 0.590835 6.10245 0.613418 6.18347C0.636001 6.26448 0.681458 6.33727 0.744345 6.39312L3.93809 9.26749L3.07622 13.5769C3.05999 13.6593 3.06781 13.7446 3.09875 13.8227C3.12969 13.9007 3.18245 13.9682 3.25072 14.0171C3.31899 14.066 3.39989 14.0942 3.48377 14.0984C3.56764 14.1026 3.65094 14.0825 3.72372 14.0406L7.49497 11.8531L11.2706 14.0406C11.3434 14.0825 11.4267 14.1026 11.5105 14.0984C11.5944 14.0942 11.6753 14.066 11.7436 14.0171C11.8119 13.9682 11.8646 13.9007 11.8956 13.8227C11.9265 13.7446 11.9343 13.6593 11.9181 13.5769L11.0562 9.26749L14.25 6.39312C14.3116 6.33675 14.3558 6.26391 14.3773 6.18322C14.3989 6.10253 14.3969 6.01736 14.3716 5.93776C14.3463 5.85817 14.2987 5.78748 14.2345 5.73405C14.1704 5.68062 14.0922 5.64668 14.0093 5.63624L9.69559 5.07624L7.89309 1.19124C7.85829 1.11486 7.80226 1.0501 7.73166 1.00469C7.66107 0.95928 7.57891 0.935135 7.49497 0.935135C7.41103 0.935135 7.32887 0.95928 7.25828 1.00469C7.18768 1.0501 7.13165 1.11486 7.09684 1.19124H7.10122Z" fill="#222222"/>
</svg>
