<svg width="23" height="18" viewBox="0 0 23 18" fill="none" xmlns="http://www.w3.org/2000/svg">
<path d="M21.25 0.635016C21.6291 0.633948 21.9945 0.776449 22.2728 1.03386C22.5511 1.29127 22.7216 1.6445 22.75 2.02252V15.635C22.7511 16.0141 22.6086 16.3795 22.3512 16.6578C22.0937 16.9361 21.7405 17.1066 21.3625 17.135H1.75001C1.37093 17.1361 1.0055 16.9936 0.727219 16.7362C0.448936 16.4788 0.278436 16.1255 0.250006 15.7475V2.13502C0.248938 1.75594 0.391439 1.39051 0.648851 1.11223C0.906263 0.833946 1.25949 0.663445 1.63751 0.635016H1.75001H21.25ZM21.25 2.13502H1.75001V15.635H21.25V2.13502ZM15.25 11.885V13.385H7.75001V11.885H15.25ZM17.5 8.13502C17.6989 8.13502 17.8897 8.21403 18.0303 8.35469C18.171 8.49534 18.25 8.6861 18.25 8.88502C18.25 9.08393 18.171 9.27469 18.0303 9.41535C17.8897 9.556 17.6989 9.63502 17.5 9.63502C17.3011 9.63502 17.1103 9.556 16.9697 9.41535C16.829 9.27469 16.75 9.08393 16.75 8.88502C16.75 8.6861 16.829 8.49534 16.9697 8.35469C17.1103 8.21403 17.3011 8.13502 17.5 8.13502ZM14.5 8.13502C14.6989 8.13502 14.8897 8.21403 15.0303 8.35469C15.171 8.49534 15.25 8.6861 15.25 8.88502C15.25 9.08393 15.171 9.27469 15.0303 9.41535C14.8897 9.556 14.6989 9.63502 14.5 9.63502C14.3011 9.63502 14.1103 9.556 13.9697 9.41535C13.829 9.27469 13.75 9.08393 13.75 8.88502C13.75 8.6861 13.829 8.49534 13.9697 8.35469C14.1103 8.21403 14.3011 8.13502 14.5 8.13502ZM11.5 8.13502C11.6989 8.13502 11.8897 8.21403 12.0303 8.35469C12.171 8.49534 12.25 8.6861 12.25 8.88502C12.25 9.08393 12.171 9.27469 12.0303 9.41535C11.8897 9.556 11.6989 9.63502 11.5 9.63502C11.3011 9.63502 11.1103 9.556 10.9697 9.41535C10.829 9.27469 10.75 9.08393 10.75 8.88502C10.75 8.6861 10.829 8.49534 10.9697 8.35469C11.1103 8.21403 11.3011 8.13502 11.5 8.13502ZM8.50001 8.13502C8.69892 8.13502 8.88968 8.21403 9.03034 8.35469C9.17099 8.49534 9.25001 8.6861 9.25001 8.88502C9.25001 9.08393 9.17099 9.27469 9.03034 9.41535C8.88968 9.556 8.69892 9.63502 8.50001 9.63502C8.30109 9.63502 8.11033 9.556 7.96968 9.41535C7.82902 9.27469 7.75001 9.08393 7.75001 8.88502C7.75001 8.6861 7.82902 8.49534 7.96968 8.35469C8.11033 8.21403 8.30109 8.13502 8.50001 8.13502ZM5.50001 8.13502C5.69892 8.13502 5.88968 8.21403 6.03034 8.35469C6.17099 8.49534 6.25001 8.6861 6.25001 8.88502C6.25001 9.08393 6.17099 9.27469 6.03034 9.41535C5.88968 9.556 5.69892 9.63502 5.50001 9.63502C5.30109 9.63502 5.11033 9.556 4.96968 9.41535C4.82902 9.27469 4.75001 9.08393 4.75001 8.88502C4.75001 8.6861 4.82902 8.49534 4.96968 8.35469C5.11033 8.21403 5.30109 8.13502 5.50001 8.13502ZM17.5 5.13502C17.6989 5.13502 17.8897 5.21403 18.0303 5.35469C18.171 5.49534 18.25 5.6861 18.25 5.88502C18.25 6.08393 18.171 6.27469 18.0303 6.41535C17.8897 6.556 17.6989 6.63502 17.5 6.63502C17.3011 6.63502 17.1103 6.556 16.9697 6.41535C16.829 6.27469 16.75 6.08393 16.75 5.88502C16.75 5.6861 16.829 5.49534 16.9697 5.35469C17.1103 5.21403 17.3011 5.13502 17.5 5.13502ZM14.5 5.13502C14.6989 5.13502 14.8897 5.21403 15.0303 5.35469C15.171 5.49534 15.25 5.6861 15.25 5.88502C15.25 6.08393 15.171 6.27469 15.0303 6.41535C14.8897 6.556 14.6989 6.63502 14.5 6.63502C14.3011 6.63502 14.1103 6.556 13.9697 6.41535C13.829 6.27469 13.75 6.08393 13.75 5.88502C13.75 5.6861 13.829 5.49534 13.9697 5.35469C14.1103 5.21403 14.3011 5.13502 14.5 5.13502ZM11.5 5.13502C11.6989 5.13502 11.8897 5.21403 12.0303 5.35469C12.171 5.49534 12.25 5.6861 12.25 5.88502C12.25 6.08393 12.171 6.27469 12.0303 6.41535C11.8897 6.556 11.6989 6.63502 11.5 6.63502C11.3011 6.63502 11.1103 6.556 10.9697 6.41535C10.829 6.27469 10.75 6.08393 10.75 5.88502C10.75 5.6861 10.829 5.49534 10.9697 5.35469C11.1103 5.21403 11.3011 5.13502 11.5 5.13502ZM8.50001 5.13502C8.69892 5.13502 8.88968 5.21403 9.03034 5.35469C9.17099 5.49534 9.25001 5.6861 9.25001 5.88502C9.25001 6.08393 9.17099 6.27469 9.03034 6.41535C8.88968 6.556 8.69892 6.63502 8.50001 6.63502C8.30109 6.63502 8.11033 6.556 7.96968 6.41535C7.82902 6.27469 7.75001 6.08393 7.75001 5.88502C7.75001 5.6861 7.82902 5.49534 7.96968 5.35469C8.11033 5.21403 8.30109 5.13502 8.50001 5.13502ZM5.50001 5.13502C5.69892 5.13502 5.88968 5.21403 6.03034 5.35469C6.17099 5.49534 6.25001 5.6861 6.25001 5.88502C6.25001 6.08393 6.17099 6.27469 6.03034 6.41535C5.88968 6.556 5.69892 6.63502 5.50001 6.63502C5.30109 6.63502 5.11033 6.556 4.96968 6.41535C4.82902 6.27469 4.75001 6.08393 4.75001 5.88502C4.75001 5.6861 4.82902 5.49534 4.96968 5.35469C5.11033 5.21403 5.30109 5.13502 5.50001 5.13502Z" fill="#222222"/>
</svg>
