<svg xmlns="http://www.w3.org/2000/svg" width="14" height="14" fill="none" viewBox="0 0 14 14"><path fill="#222" fill-rule="evenodd" d="M2.38501 10.76C2.78283 10.76 3.16437 10.918 3.44567 11.1993C3.72697 11.4807 3.88501 11.8622 3.88501 12.26C3.88501 12.6578 3.72697 13.0394 3.44567 13.3207C3.16437 13.602 2.78283 13.76 2.38501 13.76C1.98719 13.76 1.60565 13.602 1.32435 13.3207C1.04305 13.0394 0.88501 12.6578 0.88501 12.26C0.88501 11.8622 1.04305 11.4807 1.32435 11.1993C1.60565 10.918 1.98719 10.76 2.38501 10.76ZM7.38501 10.76C7.78283 10.76 8.16437 10.918 8.44567 11.1993C8.72697 11.4807 8.88501 11.8622 8.88501 12.26C8.88501 12.6578 8.72697 13.0394 8.44567 13.3207C8.16437 13.602 7.78283 13.76 7.38501 13.76C6.98719 13.76 6.60565 13.602 6.32435 13.3207C6.04305 13.0394 5.88501 12.6578 5.88501 12.26C5.88501 11.8622 6.04305 11.4807 6.32435 11.1993C6.60565 10.918 6.98719 10.76 7.38501 10.76ZM12.385 10.76C12.7828 10.76 13.1644 10.918 13.4457 11.1993C13.727 11.4807 13.885 11.8622 13.885 12.26C13.885 12.6578 13.727 13.0394 13.4457 13.3207C13.1644 13.602 12.7828 13.76 12.385 13.76C11.9872 13.76 11.6057 13.602 11.3243 13.3207C11.043 13.0394 10.885 12.6578 10.885 12.26C10.885 11.8622 11.043 11.4807 11.3243 11.1993C11.6057 10.918 11.9872 10.76 12.385 10.76ZM2.38501 5.76001C2.78283 5.76001 3.16437 5.91805 3.44567 6.19935C3.72697 6.48065 3.88501 6.86219 3.88501 7.26001C3.88501 7.65783 3.72697 8.03937 3.44567 8.32067C3.16437 8.60197 2.78283 8.76001 2.38501 8.76001C1.98719 8.76001 1.60565 8.60197 1.32435 8.32067C1.04305 8.03937 0.88501 7.65783 0.88501 7.26001C0.88501 6.86219 1.04305 6.48065 1.32435 6.19935C1.60565 5.91805 1.98719 5.76001 2.38501 5.76001ZM7.38501 5.76001C7.78283 5.76001 8.16437 5.91805 8.44567 6.19935C8.72697 6.48065 8.88501 6.86219 8.88501 7.26001C8.88501 7.65783 8.72697 8.03937 8.44567 8.32067C8.16437 8.60197 7.78283 8.76001 7.38501 8.76001C6.98719 8.76001 6.60565 8.60197 6.32435 8.32067C6.04305 8.03937 5.88501 7.65783 5.88501 7.26001C5.88501 6.86219 6.04305 6.48065 6.32435 6.19935C6.60565 5.91805 6.98719 5.76001 7.38501 5.76001ZM12.385 5.76001C12.7828 5.76001 13.1644 5.91805 13.4457 6.19935C13.727 6.48065 13.885 6.86219 13.885 7.26001C13.885 7.65783 13.727 8.03937 13.4457 8.32067C13.1644 8.60197 12.7828 8.76001 12.385 8.76001C11.9872 8.76001 11.6057 8.60197 11.3243 8.32067C11.043 8.03937 10.885 7.65783 10.885 7.26001C10.885 6.86219 11.043 6.48065 11.3243 6.19935C11.6057 5.91805 11.9872 5.76001 12.385 5.76001ZM2.38501 0.76001C2.78283 0.76001 3.16437 0.918045 3.44567 1.19935C3.72697 1.48065 3.88501 1.86219 3.88501 2.26001C3.88501 2.65783 3.72697 3.03937 3.44567 3.32067C3.16437 3.60197 2.78283 3.76001 2.38501 3.76001C1.98719 3.76001 1.60565 3.60197 1.32435 3.32067C1.04305 3.03937 0.88501 2.65783 0.88501 2.26001C0.88501 1.86219 1.04305 1.48065 1.32435 1.19935C1.60565 0.918045 1.98719 0.76001 2.38501 0.76001ZM7.38501 0.76001C7.78283 0.76001 8.16437 0.918045 8.44567 1.19935C8.72697 1.48065 8.88501 1.86219 8.88501 2.26001C8.88501 2.65783 8.72697 3.03937 8.44567 3.32067C8.16437 3.60197 7.78283 3.76001 7.38501 3.76001C6.98719 3.76001 6.60565 3.60197 6.32435 3.32067C6.04305 3.03937 5.88501 2.65783 5.88501 2.26001C5.88501 1.86219 6.04305 1.48065 6.32435 1.19935C6.60565 0.918045 6.98719 0.76001 7.38501 0.76001ZM12.385 0.76001C12.7828 0.76001 13.1644 0.918045 13.4457 1.19935C13.727 1.48065 13.885 1.86219 13.885 2.26001C13.885 2.65783 13.727 3.03937 13.4457 3.32067C13.1644 3.60197 12.7828 3.76001 12.385 3.76001C11.9872 3.76001 11.6057 3.60197 11.3243 3.32067C11.043 3.03937 10.885 2.65783 10.885 2.26001C10.885 1.86219 11.043 1.48065 11.3243 1.19935C11.6057 0.918045 11.9872 0.76001 12.385 0.76001Z" clip-rule="evenodd"/></svg>