<svg width="19" height="20" viewBox="0 0 19 20" fill="none" xmlns="http://www.w3.org/2000/svg">
<path d="M15.69 0.440008C16.0691 0.438941 16.4345 0.581442 16.7128 0.838853C16.9911 1.09626 17.1616 1.4495 17.19 1.82751V7.82001L18.5775 11.975C18.614 12.0877 18.6416 12.203 18.66 12.32L18.6825 12.5L18.69 12.68V19.94H17.19V18.44H2.19V19.94H0.690002V12.68C0.691174 12.5005 0.713835 12.3217 0.757503 12.1475L0.802503 11.975L2.19 7.82001V1.94001C2.18953 1.58083 2.31795 1.23341 2.55193 0.960904C2.7859 0.688393 3.10989 0.508884 3.465 0.455008L3.5775 0.447509L3.69 0.440008H15.69ZM17.19 13.94H2.19V16.94H17.19V13.94ZM16.1475 9.44001H3.24L2.235 12.44H17.16L16.1475 9.44001ZM15.69 1.94001H3.69V7.94001H5.94V4.94001C5.93893 4.56093 6.08144 4.1955 6.33885 3.91722C6.59626 3.63894 6.94949 3.46844 7.3275 3.44001H11.94C12.3191 3.43894 12.6845 3.58144 12.9628 3.83885C13.2411 4.09627 13.4116 4.4495 13.44 4.82751V7.94001H15.69V1.94001ZM11.94 4.94001H7.44V7.94001H11.94V4.94001Z" fill="#222222"/>
</svg>
