<svg width="19" height="20" viewBox="0 0 19 20" fill="none" xmlns="http://www.w3.org/2000/svg">
<path d="M15.69 0.440069C16.0691 0.439002 16.4345 0.581503 16.7128 0.838914C16.9911 1.09633 17.1616 1.44956 17.19 1.82757V7.82007L18.5775 11.9751C18.614 12.0877 18.6416 12.2031 18.66 12.3201L18.6825 12.5001L18.69 12.6801V19.9401H17.19V18.4401H2.19V19.9401H0.690002V12.6801C0.691174 12.5005 0.713835 12.3217 0.757503 12.1476L0.802503 11.9751L2.19 7.82007V1.94007C2.18953 1.5809 2.31795 1.23348 2.55193 0.960965C2.7859 0.688454 3.10989 0.508945 3.465 0.455069L3.5775 0.44757L3.69 0.440069H15.69ZM17.19 13.9401H2.19V16.9401H17.19V13.9401ZM16.1475 9.44007H3.24L2.235 12.4401H17.16L16.1475 9.44007ZM15.69 1.94007H3.69V7.94007H5.94V4.94007C5.93893 4.56099 6.08144 4.19557 6.33885 3.91728C6.59626 3.639 6.94949 3.4685 7.3275 3.44007H11.94C12.3191 3.439 12.6845 3.5815 12.9628 3.83891C13.2411 4.09633 13.4116 4.44956 13.44 4.82757V7.94007H15.69V1.94007ZM11.94 4.94007H7.44V7.94007H11.94V4.94007Z" fill="#222222"/>
</svg>
