<svg width="19" height="23" viewBox="0 0 19 23" fill="none" xmlns="http://www.w3.org/2000/svg">
<path d="M9.5 0.159914C9.99246 0.159914 10.4801 0.256911 10.9351 0.445366C11.39 0.633821 11.8034 0.910044 12.1517 1.25826C12.4999 1.60648 12.7761 2.01988 12.9645 2.47485C13.153 2.92982 13.25 3.41746 13.25 3.90991C14.2446 3.90991 15.1984 4.305 15.9017 5.00826C16.6049 5.71152 17 6.66535 17 7.65991C17 8.65448 16.6049 9.6083 15.9017 10.3116C15.1984 11.0148 14.2446 11.4099 13.25 11.4099C13.2502 12.2744 12.9517 13.1124 12.405 13.7821C11.8583 14.4518 11.097 14.912 10.25 15.0849V18.3024C10.8912 17.5469 11.6902 16.9412 12.5908 16.5279C13.4914 16.1145 14.4716 15.9036 15.4625 15.9099C16.4304 15.9076 17.3873 16.1148 18.2675 16.5174L18.5 16.6299V18.3774C17.6132 17.7461 16.5511 17.4078 15.4625 17.4099C14.2092 17.3873 12.9906 17.8216 12.0341 18.6317C11.0777 19.4419 10.4488 20.5725 10.265 21.8124L10.25 21.9249V21.9999C10.2292 22.167 10.1528 22.3222 10.033 22.4405C9.91333 22.5589 9.75728 22.6335 9.59 22.6524L9.5 22.6599C9.33149 22.6594 9.16807 22.6021 9.03609 22.4973C8.90411 22.3926 8.81126 22.2464 8.7725 22.0824L8.7575 21.9924C8.60164 20.7101 7.97522 19.5314 6.99967 18.6847C6.02413 17.838 4.76896 17.3837 3.4775 17.4099C2.41421 17.407 1.37538 17.7288 0.5 18.3324V16.5999C1.8714 15.9302 3.42674 15.7363 4.92061 16.0486C6.41448 16.361 7.76181 17.1619 8.75 18.3249V15.0849C7.93005 14.9184 7.18934 14.4824 6.64572 13.8464C6.1021 13.2104 5.78681 12.4108 5.75 11.5749V11.4099H5.585C4.59044 11.4099 3.63661 11.0148 2.93335 10.3116C2.23009 9.6083 1.835 8.65448 1.835 7.65991C1.835 6.66535 2.23009 5.71152 2.93335 5.00826C3.63661 4.305 4.59044 3.90991 5.585 3.90991H5.75V3.74491C5.79253 2.77923 6.20632 1.86726 6.90502 1.1993C7.60373 0.531337 8.53338 0.158978 9.5 0.159914ZM11.645 10.7349C11.0166 11.1758 10.2676 11.4123 9.5 11.4123C8.73238 11.4123 7.98341 11.1758 7.355 10.7349L7.3025 10.9074C7.2274 11.2369 7.2275 11.5791 7.30278 11.9086C7.37807 12.238 7.5266 12.5463 7.73736 12.8105C7.94811 13.0747 8.21568 13.288 8.52018 13.4346C8.82468 13.5812 9.15829 13.6574 9.49625 13.6574C9.83421 13.6574 10.1678 13.5812 10.4723 13.4346C10.7768 13.288 11.0444 13.0747 11.2551 12.8105C11.4659 12.5463 11.6144 12.238 11.6897 11.9086C11.765 11.5791 11.7651 11.2369 11.69 10.9074L11.645 10.7349ZM5.75 5.40991C5.43488 5.41267 5.12386 5.48159 4.83707 5.61221C4.55028 5.74283 4.29413 5.93224 4.08521 6.16816C3.87629 6.40408 3.71926 6.68126 3.62429 6.98174C3.52932 7.28222 3.49852 7.5993 3.5339 7.91244C3.56928 8.22557 3.67005 8.52779 3.82967 8.7995C3.98929 9.07122 4.20421 9.30637 4.4605 9.48973C4.71679 9.67309 5.00875 9.80057 5.31745 9.86391C5.62615 9.92725 5.94471 9.92504 6.2525 9.85741L6.425 9.80491C5.98499 9.17623 5.74931 8.42728 5.75 7.65991C5.75 6.86491 5.9975 6.12241 6.425 5.51491L6.2525 5.46241C6.08749 5.42617 5.91894 5.40856 5.75 5.40991ZM13.25 5.40991C13.0775 5.40991 12.9125 5.43241 12.7475 5.46241L12.575 5.51491C13.0025 6.11491 13.25 6.86491 13.25 7.65991C13.2507 8.42728 13.015 9.17623 12.575 9.80491L12.7475 9.85741C13.0553 9.92504 13.3739 9.92725 13.6826 9.86391C13.9913 9.80057 14.2832 9.67309 14.5395 9.48973C14.7958 9.30637 15.0107 9.07122 15.1703 8.7995C15.33 8.52779 15.4307 8.22557 15.4661 7.91244C15.5015 7.5993 15.4707 7.28222 15.3757 6.98174C15.2807 6.68126 15.1237 6.40408 14.9148 6.16816C14.7059 5.93224 14.4497 5.74283 14.1629 5.61221C13.8761 5.48159 13.5651 5.41267 13.25 5.40991ZM9.5 5.40991C9.20453 5.40991 8.91194 5.46811 8.63896 5.58118C8.36598 5.69426 8.11794 5.85999 7.90901 6.06892C7.70008 6.27786 7.53434 6.52589 7.42127 6.79888C7.3082 7.07186 7.25 7.36444 7.25 7.65991C7.25 7.95539 7.3082 8.24797 7.42127 8.52095C7.53434 8.79393 7.70008 9.04197 7.90901 9.2509C8.11794 9.45984 8.36598 9.62557 8.63896 9.73864C8.91194 9.85172 9.20453 9.90991 9.5 9.90991C10.0967 9.90991 10.669 9.67286 11.091 9.2509C11.5129 8.82895 11.75 8.25665 11.75 7.65991C11.75 7.06318 11.5129 6.49088 11.091 6.06892C10.669 5.64697 10.0967 5.40991 9.5 5.40991ZM9.5 1.65991C9.16146 1.65926 8.82713 1.73501 8.52193 1.88153C8.21674 2.02804 7.94853 2.24153 7.73731 2.5061C7.52609 2.77067 7.37729 3.07949 7.30201 3.40956C7.22672 3.73962 7.22689 4.08242 7.3025 4.41241L7.355 4.58491C7.98341 4.14407 8.73238 3.90756 9.5 3.90756C10.2676 3.90756 11.0166 4.14407 11.645 4.58491L11.6975 4.41241C11.7731 4.08242 11.7733 3.73962 11.698 3.40956C11.6227 3.07949 11.4739 2.77067 11.2627 2.5061C11.0515 2.24153 10.7833 2.02804 10.4781 1.88153C10.1729 1.73501 9.83854 1.65926 9.5 1.65991Z" fill="#222222"/>
</svg>
