<svg width="20" height="23" viewBox="0 0 20 23" fill="none" xmlns="http://www.w3.org/2000/svg">
<path d="M2.44498 0.535034L4.69498 2.78503L4.19998 3.32503C2.66485 5.03971 1.84492 7.27733 1.90876 9.57791C1.9726 11.8785 2.91535 14.0672 4.54321 15.6941C6.17107 17.321 8.36034 18.2625 10.661 18.325C12.9616 18.3874 15.1987 17.5662 16.9125 16.03L17.4525 15.5275L19.7025 17.7775L18.6375 18.8425L17.385 17.5825C15.742 18.8689 13.7516 19.6343 11.67 19.78V21.31H13.92V22.81H7.91998V21.31H10.17V19.78C7.64309 19.6035 5.26603 18.5163 3.47998 16.72C1.67384 14.9062 0.592455 12.4951 0.439149 9.94001C0.285842 7.3849 1.07117 4.86179 2.64748 2.84503L1.38748 1.59253L2.44498 0.535034ZM16.08 3.86503L16.2375 4.02253L16.395 4.18753C17.7286 5.62381 18.447 7.52507 18.3964 9.48437C18.3458 11.4437 17.5303 13.3053 16.1243 14.6709C14.7183 16.0364 12.8337 16.7973 10.8737 16.7907C8.9138 16.7842 7.0343 16.0106 5.63753 14.6357C4.24077 13.2607 3.43772 11.3937 3.40028 9.43405C3.36284 7.47445 4.09398 5.57806 5.43721 4.15076C6.78044 2.72347 8.62902 1.8787 10.5873 1.79726C12.5455 1.71583 14.4579 2.4042 15.915 3.71503L16.08 3.86503ZM9.07498 12.2125L7.23748 14.05C8.08126 14.7066 9.08517 15.1259 10.1453 15.2643C11.2055 15.4028 12.2834 15.2554 13.2675 14.8375C11.7094 14.2499 10.2841 13.3575 9.07498 12.2125ZM12.7575 8.53003L10.1325 11.155C12.27 13.06 14.6925 14.02 15.1575 13.555C15.63 13.0975 14.6625 10.6675 12.7575 8.53003ZM5.39998 6.95503L5.33998 7.09753C4.95486 8.06826 4.82978 9.1227 4.9771 10.1566C5.12442 11.1905 5.53905 12.168 6.17998 12.9925L8.01748 11.155C6.87132 9.94397 5.97883 8.51599 5.39248 6.95503H5.39998ZM15.66 5.63503L13.8225 7.46503C14.9678 8.67672 15.8602 10.1045 16.4475 11.665C16.8668 10.6799 17.0149 9.6006 16.8765 8.53897C16.738 7.47734 16.318 6.4721 15.66 5.62753V5.63503ZM6.67498 5.06503C6.20998 5.53003 7.16998 7.96003 9.07498 10.09L11.7 7.46503C9.56249 5.56003 7.14748 4.60003 6.67498 5.06503ZM8.57998 3.79003C9.89248 4.23253 11.3925 5.16253 12.765 6.40753L14.595 4.57003C13.751 3.91952 12.7496 3.50457 11.6928 3.36754C10.6361 3.23051 9.56196 3.3763 8.57998 3.79003Z" fill="#222222"/>
</svg>
