<svg xmlns="http://www.w3.org/2000/svg" width="13" height="13" fill="none" viewBox="0 0 13 13"><path stroke="#fff" stroke-width="2" d="M8.17999 8.38L11.555 11.755M5.17999 9.505C5.7217 9.505 6.25809 9.39831 6.75856 9.19101C7.25903 8.98371 7.71377 8.67986 8.09681 8.29682C8.47985 7.91378 8.7837 7.45904 8.991 6.95857C9.1983 6.45811 9.30499 5.92171 9.30499 5.38C9.30499 4.8383 9.1983 4.3019 8.991 3.80144C8.7837 3.30097 8.47985 2.84623 8.09681 2.46319C7.71377 2.08015 7.25903 1.7763 6.75856 1.569C6.25809 1.3617 5.7217 1.255 5.17999 1.255C4.08597 1.255 3.03676 1.6896 2.26318 2.46319C1.48959 3.23678 1.05499 4.28599 1.05499 5.38C1.05499 6.47402 1.48959 7.52323 2.26318 8.29682C3.03676 9.07041 4.08597 9.505 5.17999 9.505Z"/></svg>