<svg width="16" height="16" viewBox="0 0 16 16" fill="none" xmlns="http://www.w3.org/2000/svg">
<path d="M7.83502 0.0302734C9.89402 0.0355716 11.8667 0.857905 13.3199 2.31665C14.773 3.7754 15.5877 5.75127 15.585 7.81027C15.5781 9.82127 14.7898 11.7508 13.3866 13.1914C11.9834 14.6319 10.0751 15.4706 8.06502 15.5303H7.81502C5.80397 15.526 3.87331 14.7403 2.4309 13.3389C0.98849 11.9375 0.147295 10.0304 0.085022 8.02027V7.77027C0.0876719 5.71658 0.905357 3.7479 2.35848 2.29666C3.8116 0.845414 5.78133 0.0302717 7.83502 0.0302734ZM9.78502 8.53027H5.88502C6.03502 11.4303 7.05502 13.8703 7.76502 14.0303H7.83502C8.51502 14.0303 9.55502 11.6603 9.76502 8.80027L9.78502 8.53027ZM14.045 8.53027H11.285C11.195 10.4903 10.755 12.3103 10.105 13.6103C11.119 13.2138 12.012 12.5598 12.6959 11.7128C13.3799 10.8657 13.8311 9.85498 14.005 8.78027L14.045 8.53027ZM4.37502 8.53027H1.63502C1.77104 9.65416 2.20928 10.7201 2.90309 11.6147C3.59691 12.5092 4.52032 13.1989 5.57502 13.6103C4.88796 12.1334 4.49401 10.5372 4.41502 8.91027L4.38502 8.53027H4.37502ZM5.57502 1.95027L5.45502 2.00027C4.42768 2.42338 3.53146 3.11228 2.85838 3.99625C2.1853 4.88022 1.75961 5.9274 1.62502 7.03027H4.37502C4.46502 5.20027 4.85502 3.49027 5.43502 2.22027L5.57502 1.95027ZM7.82502 1.53027C7.12502 1.53027 6.04502 4.04027 5.88502 7.03027H9.78502C9.63502 4.13027 8.60502 1.69027 7.89502 1.53027H7.82502ZM10.105 1.96027L10.135 2.01027C10.8506 3.58974 11.2416 5.29682 11.285 7.03027H14.035C13.8961 5.90998 13.4578 4.84785 12.7662 3.95563C12.0746 3.06342 11.1553 2.37412 10.105 1.96027Z" fill="#222222"/>
</svg>
